<?xml version="1.0" encoding="utf-8"?>
<!-- Generator: Adobe Illustrator 16.0.0, SVG Export Plug-In . SVG Version: 6.00 Build 0)  -->
<!DOCTYPE svg PUBLIC "-//W3C//DTD SVG 1.1//EN" "http://www.w3.org/Graphics/SVG/1.1/DTD/svg11.dtd">
<svg version="1.1" id="Layer_1" xmlns="http://www.w3.org/2000/svg" xmlns:xlink="http://www.w3.org/1999/xlink" x="0px" y="0px"
	 width="512px" height="512px" viewBox="0 0 512 512" enable-background="new 0 0 512 512" xml:space="preserve">
<g>
	<path fill="#F5B83B" d="M263.109,228.846c5.452,2.726,8.178,5.757,8.178,9.085c0,3.337-0.454,6.743-1.363,10.22
		c-0.908,3.485-1.895,10.527-2.952,21.124c-1.065,10.604-1.591,18.021-1.591,22.261c0,37.541,0.287,65.529,0.861,83.968
		l132.805-96.201l-37.451-114.839c-4.088,2.16-8.371,4.539-12.856,7.146C331.023,181.907,302.475,200.986,263.109,228.846z"/>
	<path fill="#F5B83B" d="M239.943,255.647c-1.52-9.086-5.608-17.865-12.267-26.347c-1.817-2.423-2.726-4.693-2.726-6.816
		c0-2.114,2.045-3.18,6.133-3.18s10.222,1.363,18.398,4.088c26.645-22.102,48.379-41.862,65.188-59.281
		c16.808-17.412,25.211-31.266,25.211-41.564l-0.908-5.915c0-2.38,1.377-4.132,4.084-4.132H167.388l-54.687,167.401L241.446,372.8
		c0.509-14.968,0.768-33.146,0.768-54.353C242.214,285.74,241.455,264.732,239.943,255.647z"/>
	<path fill="#5E9A57" d="M400.299,144.805c0-4.84-7.574-11.653-22.714-20.44c-15.146-8.782-25.368-12.731-30.663-12.731
		c-1.513,0-2.783,0.867-3.865,0.867h1.303l17.236,52.406c12.056-6.371,22.383-11.027,30.98-13.52
		C397.723,149.875,400.299,147.531,400.299,144.805z"/>
	<path fill="#5E9A57" d="M241.446,372.578c-0.276,8.117-0.625,15.338-1.05,21.619c-1.213,17.875-3.484,31.957-6.814,42.248
		c-1.518,3.932-2.271,8.404-2.271,13.401s2.422,13.856,7.27,26.575c4.84,12.719,8.928,19.078,12.265,19.078
		c3.329,0,7.19-5.905,11.583-17.717c4.387-11.81,6.588-25.062,6.588-39.747c0-14.687-0.61-29.146-1.816-43.384
		c-0.379-4.431-0.697-10.814-0.957-19.149l-10.367,7.511L241.446,372.578z"/>
	<path fill="#414E47" d="M343.057,112.5c-2.707,0-4.084,1.752-4.084,4.132l0.908,6.138c0,10.299-8.403,24.041-25.211,41.453
		c-16.809,17.418-38.543,37.124-65.188,59.227c-8.177-2.727-14.311-4.117-18.398-4.117s-6.133,1.052-6.133,3.166
		c0,2.123,0.908,4.387,2.726,6.81c6.658,8.481,10.747,17.258,12.267,26.343c1.512,9.085,2.271,29.98,2.271,62.688
		c0,21.206-0.259,39.271-0.768,54.24l14.429,10.436l10.367-7.51c-0.574-18.438-0.861-46.428-0.861-83.969
		c0-4.24,0.525-11.656,1.591-22.261c1.058-10.597,2.044-17.639,2.952-21.124c0.909-3.477,1.363-6.883,1.363-10.22
		c0-3.328-2.726-6.359-8.178-9.085c39.365-27.859,67.914-46.938,85.63-57.237c4.485-2.606,8.769-4.541,12.856-6.702L344.359,112.5
		H343.057z"/>
</g>
</svg>
