<?xml version="1.0" encoding="utf-8"?>
<!-- Generator: Adobe Illustrator 16.0.0, SVG Export Plug-In . SVG Version: 6.00 Build 0)  -->
<!DOCTYPE svg PUBLIC "-//W3C//DTD SVG 1.1//EN" "http://www.w3.org/Graphics/SVG/1.1/DTD/svg11.dtd">
<svg version="1.1" id="Layer_1" xmlns="http://www.w3.org/2000/svg" xmlns:xlink="http://www.w3.org/1999/xlink" x="0px" y="0px"
	 width="512px" height="512px" viewBox="0 0 512 512" enable-background="new 0 0 512 512" xml:space="preserve">
<path fill="#006380" d="M327.722,456.883c41.839-8.072,90.177-22.073,148.239-47.296c22.651-9.473,33.367-18.317,33.367-28.07
	c0-7.062-5.246-15.608-20.188-26.706c-14.942-9.416-28.006-16.268-41.597-16.68c-15.856-1.029-26.59,5.552-26.59,10.596
	c0.025,10.203,8.937,13.824,10.247,21.691c1.31,7.868-61.692,55.49-103.104,78.695c0,0,0.537-15.615,6.403-20.683
	c5.867-5.068,61.074-59.104,62.759-62.552c1.686-3.449-87.158,36.531-93.497,36.824c-6.339,0.294-19.955-3.48-22.414-17.655
	c-2.458-14.175-7.898-22.7-16.01-22.7c-9.393,0-16.649,5.381-21.773,16.143c-5.977,13.788-8.965,25.559-8.965,35.312
	c0,14.46,13.24,29.819,46.967,49.325c-0.259,0.059,3.034,1.741,2.771,1.799c0.127,0.075,0.25,0.106,0.376,0.185
	c8.189,5.064,37.366,15.597,44.048,2.886C330.989,464.157,327.722,456.883,327.722,456.883z"/>
<path fill="#FFFEF9" d="M332.205,449.614c-65.317,0-58.46-75.031-58.46-167.587s-6.857-167.587,58.46-167.587
	s118.268,75.031,118.268,167.587S397.522,449.614,332.205,449.614z"/>
<path fill="#BBE4EB" d="M332.205,449.613c51.452,0,95.223-46.562,111.49-111.568c-13.712,0.162-22.742,6.059-22.742,10.682
	c0.025,10.203,8.937,13.824,10.247,21.691c1.31,7.867-61.692,55.49-103.104,78.695c0,0,0.537-15.615,6.403-20.683
	c5.867-5.068,61.074-59.104,62.759-62.552c1.686-3.449-87.158,36.531-93.497,36.824c-6.339,0.294-19.955-3.48-22.414-17.654
	c-1.384-7.984-3.715-14.176-6.936-18.061C277.256,416.432,288.772,449.613,332.205,449.613z"/>
</svg>
