<?xml version="1.0" encoding="utf-8"?>
<!-- Generator: Adobe Illustrator 16.0.0, SVG Export Plug-In . SVG Version: 6.00 Build 0)  -->
<!DOCTYPE svg PUBLIC "-//W3C//DTD SVG 1.1//EN" "http://www.w3.org/Graphics/SVG/1.1/DTD/svg11.dtd">
<svg version="1.1" id="Layer_1" xmlns="http://www.w3.org/2000/svg" xmlns:xlink="http://www.w3.org/1999/xlink" x="0px" y="0px"
	 width="512px" height="512px" viewBox="0 0 512 512" enable-background="new 0 0 512 512" xml:space="preserve">
<g>
	<polygon fill="#E6F4EC" points="336,278.5 176,278.5 134,327.107 56,418.5 128.629,418.5 179.841,418.5 456,418.5 	"/>
	<path fill="#F8CB78" d="M175.5,378.934V278l0,0l-42,48.607v52.326c0,15.657-3.29,24.566-4.871,39.566h51.212
		C178.591,404.5,175.5,394.283,175.5,378.934z"/>
	<path fill="#F8CB78" d="M175.5,278v-83.5h113.123c18.4,0,32.877,1.209,46.877,2.71v-46.074c-14,1.517-28.773,5.363-45.971,5.363
		H133.5v170.107l42-48.733V278z"/>
	<path fill="#4E5D84" d="M175.5,278v-83.5h113.123c18.4,0,32.877,1.209,46.877,2.71v-46.074c-14,1.517-28.773,5.363-45.971,5.363
		H133.5v170.107l42-48.733V278z"/>
	<polygon fill="#FFF5E2" points="336,278.5 176,278.5 134,327.107 56,418.5 128.629,418.5 179.841,418.5 456,418.5 	"/>
	<path fill="#F8CB78" d="M175.5,378.934V278l0,0l-42,48.607v52.326c0,15.657-3.29,24.566-4.871,39.566h51.212
		C178.591,404.5,175.5,394.283,175.5,378.934z"/>
</g>
</svg>
